<svg width="33" height="33" viewBox="0 0 33 33" fill="none" xmlns="http://www.w3.org/2000/svg">
<path d="M10.5605 1.98047C5.82991 1.98047 1.98047 5.82991 1.98047 10.5605V22.4405C1.98047 27.171 5.82991 31.0205 10.5605 31.0205H22.4405C27.171 31.0205 31.0205 27.171 31.0205 22.4405V10.5605C31.0205 5.82991 27.171 1.98047 22.4405 1.98047H10.5605ZM10.5605 3.30047H22.4405C26.4575 3.30047 29.7005 6.54339 29.7005 10.5605V22.4405C29.7005 26.4575 26.4575 29.7005 22.4405 29.7005H10.5605C6.54339 29.7005 3.30047 26.4575 3.30047 22.4405V10.5605C3.30047 6.54339 6.54339 3.30047 10.5605 3.30047ZM24.4205 7.26047C23.6915 7.26047 23.1005 7.85145 23.1005 8.58047C23.1005 9.30949 23.6915 9.90047 24.4205 9.90047C25.1495 9.90047 25.7405 9.30949 25.7405 8.58047C25.7405 7.85145 25.1495 7.26047 24.4205 7.26047ZM16.5005 9.24047C12.4987 9.24047 9.24047 12.4987 9.24047 16.5005C9.24047 20.5022 12.4987 23.7605 16.5005 23.7605C20.5022 23.7605 23.7605 20.5022 23.7605 16.5005C23.7605 12.4987 20.5022 9.24047 16.5005 9.24047ZM16.5005 10.5605C19.7889 10.5605 22.4405 13.2121 22.4405 16.5005C22.4405 19.7889 19.7889 22.4405 16.5005 22.4405C13.2121 22.4405 10.5605 19.7889 10.5605 16.5005C10.5605 13.2121 13.2121 10.5605 16.5005 10.5605Z" fill="white"/>
</svg>
